<?xml version="1.0" encoding="UTF-8" standalone="yes"?>
<svg version="1.2" width="320" height="320" baseProfile="tiny-ps" xmlns="http://www.w3.org/2000/svg">
  <title>bimi-svg-tiny-12-ps</title>
  <path d="M0 0 C105.6 0 211.2 0 320 0 C320 105.6 320 211.2 320 320 C214.4 320 108.8 320 0 320 C0 214.4 0 108.8 0 0 Z " fill="#FEEEF4" transform="translate(0,0)"/>
  <path d="M0 0 C5.43609554 3.41801325 8.76507632 7.57018156 10.65234375 13.765625 C12.06723743 20.75086585 12.03099075 27.12370198 8.4609375 33.40625 C4.20588167 39.62441121 -0.55018737 42.38268963 -7.9140625 43.90625 C-14.72917718 44.44713212 -20.30593904 43.63399134 -25.8671875 39.4296875 C-31.85928299 33.91595257 -33.99514042 28.47029945 -34.3515625 20.40625 C-34.12844289 13.94470613 -32.47290898 9.557771 -27.97265625 4.89453125 C-20.41761807 -1.96483122 -9.71400041 -3.64600551 0 0 Z " fill="#E06A98" transform="translate(147.9140625,82.09375)"/>
  <path d="M0 0 C6.23404935 5.79881798 8.98706057 10.82857688 9.375 19.375 C9.23392644 26.29700916 7.03826366 30.64815732 2.5625 35.8125 C-3.30900713 40.82476219 -8.15745444 42.33535918 -15.8828125 42.21875 C-21.64858511 41.62302442 -27.01618184 39.19915969 -31 35 C-35.57497025 28.2260109 -37.10394066 22.10365232 -36 14 C-34.37747159 6.71720074 -30.25696565 2.03675203 -24 -2 C-16.43205132 -4.46557604 -6.74111148 -4.31431135 0 0 Z " fill="#E06A97" transform="translate(146,169)"/>
  <path d="M0 0 C22.70095694 0 22.70095694 0 28 5 C33.5389414 11.09639374 35.38223 15.84643919 35.2734375 24.08203125 C34.68005319 30.41428949 32.27123544 35.18113215 27.5625 39.4375 C19.08033528 46.345249 11.70277176 44 0 44 C0 29.48 0 14.96 0 0 Z " fill="#E06997" transform="translate(231,166)"/>
  <path d="M0 0 C3.3 0 6.6 0 10 0 C10.84884766 2.03994141 10.84884766 2.03994141 11.71484375 4.12109375 C12.45560015 5.8932831 13.19649258 7.66541559 13.9375 9.4375 C14.31068359 10.33533203 14.68386719 11.23316406 15.06835938 12.15820312 C15.42607422 13.01220703 15.78378906 13.86621094 16.15234375 14.74609375 C16.48226318 15.53685303 16.81218262 16.3276123 17.15209961 17.14233398 C17.85721491 18.97376797 17.85721491 18.97376797 19 20 C21.31 14.06 23.62 8.12 26 2 C26.99 2 27.98 2 29 2 C31.31 7.94 33.62 13.88 36 20 C38.43174922 15.13650156 40.70618536 10.49599133 42.75 5.5 C43.17796875 4.4584375 43.6059375 3.416875 44.046875 2.34375 C44.51867187 1.18359375 44.51867187 1.18359375 45 0 C48.3 0 51.6 0 55 0 C52.28110949 8.32046011 49.18245045 16.44274456 45.95703125 24.57763672 C45.3141128 26.20494204 44.67616042 27.83421736 44.04296875 29.46533203 C43.12275254 31.8354568 42.18815911 34.19942969 41.25 36.5625 C40.96866211 37.2946875 40.68732422 38.026875 40.39746094 38.78125 C39.68251823 40.55710293 38.85023268 42.28480289 38 44 C37.01 44.33 36.02 44.66 35 45 C34.50628906 43.78441406 34.01257813 42.56882813 33.50390625 41.31640625 C32.85690291 39.7317169 32.2097603 38.14708441 31.5625 36.5625 C31.23701172 35.76005859 30.91152344 34.95761719 30.57617188 34.13085938 C30.26357422 33.36708984 29.95097656 32.60332031 29.62890625 31.81640625 C29.34088135 31.10943604 29.05285645 30.40246582 28.75610352 29.67407227 C28.11946155 28.00167233 28.11946155 28.00167233 27 27 C24.69 32.94 22.38 38.88 20 45 C17 44 17 44 16.0385437 42.3881073 C15.76398346 41.69179703 15.48942322 40.99548676 15.20654297 40.27807617 C14.88966522 39.49023239 14.57278748 38.70238861 14.24630737 37.89067078 C13.91494781 37.03342911 13.58358826 36.17618744 13.2421875 35.29296875 C12.8936673 34.41602859 12.54514709 33.53908844 12.18606567 32.63557434 C11.0718624 29.82357395 9.9736391 27.00561248 8.875 24.1875 C8.1272722 22.29844385 7.37858596 20.40976676 6.62890625 18.52148438 C5.91581518 16.71648199 5.20354832 14.91115373 4.4921875 13.10546875 C4.15677948 12.25429977 3.82137146 11.4031308 3.47579956 10.52616882 C3.00993942 9.33021843 3.00993942 9.33021843 2.53466797 8.11010742 C2.12521439 7.06206184 2.12521439 7.06206184 1.70748901 5.99284363 C1.01257486 4.03542065 0.5037746 2.01509839 0 0 Z " fill="#E06A97" transform="translate(51,166)"/>
  <path d="M0 0 C21 0 21 0 27 4 C29.91383393 7.02495471 30.45329345 9.20644035 30.5 13.375 C30.40773541 17.21423206 30.10885571 19.58628236 27.625 22.5625 C26.325625 23.7690625 26.325625 23.7690625 25 25 C24.34 25.66 23.68 26.32 23 27 C23.6496875 28.14339844 24.299375 29.28679687 24.96875 30.46484375 C25.81261164 31.95566598 26.65635558 33.44655484 27.5 34.9375 C27.92925781 35.69224609 28.35851562 36.44699219 28.80078125 37.22460938 C29.40986328 38.30258789 29.40986328 38.30258789 30.03125 39.40234375 C30.40830078 40.06741943 30.78535156 40.73249512 31.17382812 41.41772461 C32 43 32 43 32 44 C28.7 44 25.4 44 22 44 C21.39671875 42.85660156 20.7934375 41.71320313 20.171875 40.53515625 C19.36528017 39.04389372 18.55795013 37.55302868 17.75 36.0625 C17.35425781 35.30775391 16.95851562 34.55300781 16.55078125 33.77539062 C16.15761719 33.05673828 15.76445312 32.33808594 15.359375 31.59765625 C15.00327148 30.93258057 14.64716797 30.26750488 14.28027344 29.58227539 C12.89684897 27.54806243 12.89684897 27.54806243 9 27 C9 32.61 9 38.22 9 44 C6.03 44 3.06 44 0 44 C0 29.48 0 14.96 0 0 Z " fill="#E06997" transform="translate(163,166)"/>
  <path d="M0 0 C3.54113396 -0.70537678 6.49192104 -0.95212012 10 0 C13.11569259 3.43328516 14.82474079 6.83863456 17 11 C18.98 7.37 20.96 3.74 23 0 C26.3 0 29.6 0 33 0 C31.21234202 4.99409214 28.47584315 9.36566974 25.65820312 13.828125 C23.49783006 17.38922128 23.49783006 17.38922128 23.24462891 21.4387207 C24.02692118 24.09128315 25.02123493 26.02802873 26.50390625 28.35546875 C26.99697266 29.14244141 27.49003906 29.92941406 27.99804688 30.74023438 C28.51431641 31.54783203 29.03058594 32.35542969 29.5625 33.1875 C30.58855624 34.80350679 31.61089172 36.42188401 32.62890625 38.04296875 C33.08338135 38.75477295 33.53785645 39.46657715 34.00610352 40.19995117 C35 42 35 42 35 44 C31.49468251 44.62347544 28.47679897 44.86141586 25 44 C22.24035085 41.01689748 20.6530387 37.68582953 19 34 C18.33691996 32.66487938 17.67163712 31.33083651 17 30 C16.43410156 30.92683594 15.86820313 31.85367188 15.28515625 32.80859375 C14.54434424 34.01827412 13.80345482 35.22790709 13.0625 36.4375 C12.68931641 37.04916016 12.31613281 37.66082031 11.93164062 38.29101562 C9.11328125 42.88671875 9.11328125 42.88671875 8 44 C6.31391034 44.07205511 4.62499341 44.08386068 2.9375 44.0625 C2.01839844 44.05347656 1.09929687 44.04445312 0.15234375 44.03515625 C-0.55792969 44.02355469 -1.26820313 44.01195312 -2 44 C-0.02123527 38.24671295 3.4023626 33.26618186 6.63085938 28.15039062 C7.07623047 27.41884766 7.52160156 26.68730469 7.98046875 25.93359375 C8.39192139 25.27415771 8.80337402 24.61472168 9.22729492 23.93530273 C10.20970704 21.47477165 9.92966527 20.45276587 9 18 C8.35574506 16.70345577 7.66374154 15.42987772 6.93359375 14.1796875 C6.53076172 13.47972656 6.12792969 12.77976562 5.71289062 12.05859375 C5.29201172 11.33800781 4.87113281 10.61742188 4.4375 9.875 C3.59897157 8.43715913 2.76414382 6.99715167 1.93359375 5.5546875 C1.56290771 4.92030762 1.19222168 4.28592773 0.81030273 3.63232422 C0 2 0 2 0 0 Z " fill="#E06997" transform="translate(164,81)"/>
  <path d="M0 0 C3.95683792 -0.9318908 7.08254774 -1.19532518 11 0 C15.0158558 3.92928311 17.34421068 9.12379665 20 14 C22.64 9.38 25.28 4.76 28 0 C31.63 0 35.26 0 39 0 C37.58107125 3.54732188 36.46500633 6.05624062 34.43359375 9.13671875 C33.94826172 9.87857422 33.46292969 10.62042969 32.96289062 11.38476562 C32.20782227 12.52461914 32.20782227 12.52461914 31.4375 13.6875 C30.43537449 15.21169852 29.43403407 16.73641359 28.43359375 18.26171875 C27.99072021 18.93162842 27.54784668 19.60153809 27.09155273 20.29174805 C25.22407833 23.21429746 24.83624645 25.12472301 24.68359375 28.5703125 C24.64169922 29.46621094 24.59980469 30.36210938 24.55664062 31.28515625 C24.51732422 32.22230469 24.47800781 33.15945312 24.4375 34.125 C24.39431641 35.06988281 24.35113281 36.01476562 24.30664062 36.98828125 C24.2004106 39.32534172 24.09968729 41.6626513 24 44 C21.03 44 18.06 44 15 44 C15.06703125 42.70449219 15.1340625 41.40898438 15.203125 40.07421875 C15.48448106 25.8569876 11.84922683 17.13326061 3.31274414 5.86499023 C1.98667416 3.98106824 0.97653662 2.08325889 0 0 Z " fill="#E16A98" transform="translate(200,81)"/>
  <path d="M0 0 C3.17852316 1.64448689 5.37801764 3.75603527 7 7 C8.03994013 16.92400011 8.03994013 16.92400011 5.953125 21.08984375 C3.4920279 24.05039879 1.44764864 25.83441927 -2.390625 26.2734375 C-11.06433361 26.58152005 -11.06433361 26.58152005 -14.5625 23.8125 C-18.16510949 19.6556429 -19.2297579 17.0149364 -18.9375 11.5625 C-18.27243495 6.70428091 -16.47378172 4.38905534 -13 1 C-9.03716439 -0.98141781 -4.30789762 -0.55820645 0 0 Z " fill="#FEECF3" transform="translate(138,175)"/>
  <path d="M0 0 C3.26275969 1.60253423 5.23017874 3.95024374 7.375 6.875 C8.67156778 11.28333045 8.40662687 14.90852788 6.8125 19.1875 C4.69786162 22.46883541 3.45735531 24.12726587 0 26 C-5.17473913 26.76374162 -9.46445603 26.8774537 -14.0625 24.25 C-18.06994123 19.59619728 -18.483199 15.73253168 -18.39453125 9.703125 C-17.77785812 5.4779982 -16.12793255 3.83003421 -13 1 C-9.0327265 -0.98363675 -4.3131746 -0.54751158 0 0 Z " fill="#FEECF3" transform="translate(142,90)"/>
  <path d="M0 0 C2.97 0 5.94 0 9 0 C9 11.55 9 23.1 9 35 C13.62 35 18.24 35 23 35 C23 37.97 23 40.94 23 44 C15.41 44 7.82 44 0 44 C0 29.48 0 14.96 0 0 Z " fill="#E16A98" transform="translate(201,166)"/>
  <path d="M0 0 C2.97 0 5.94 0 9 0 C9 11.55 9 23.1 9 35 C13.62 35 18.24 35 23 35 C23 37.97 23 40.94 23 44 C15.41 44 7.82 44 0 44 C0 29.48 0 14.96 0 0 Z " fill="#E06A98" transform="translate(85,81)"/>
  <path d="M0 0 C8.5 0 8.5 0 13 3 C15.80168958 6.24406162 16.9043675 8.23494 17.4375 12.5 C16.80758135 17.53934921 15.05596872 21.78902477 11 25 C8 26 8 26 0 26 C0 17.42 0 8.84 0 0 Z " fill="#FEEDF3" transform="translate(240,175)"/>
  <path d="M0 0 C1.60875 -0.04125 3.2175 -0.0825 4.875 -0.125 C5.77992188 -0.14820313 6.68484375 -0.17140625 7.6171875 -0.1953125 C10 0 10 0 12 2 C12.25 5 12.25 5 12 8 C10 10 10 10 7.6171875 10.1953125 C6.71226562 10.17210937 5.80734375 10.14890625 4.875 10.125 C2.461875 10.063125 2.461875 10.063125 0 10 C0 6.7 0 3.4 0 0 Z " fill="#FDE8F0" transform="translate(172,175)"/>
</svg>